<?xml version="1.0" encoding="utf-8"?>
<!-- Generator: Adobe Illustrator 16.0.0, SVG Export Plug-In . SVG Version: 6.00 Build 0)  -->
<!DOCTYPE svg PUBLIC "-//W3C//DTD SVG 1.1//EN" "http://www.w3.org/Graphics/SVG/1.1/DTD/svg11.dtd">
<svg version="1.1" id="Layer_1" xmlns="http://www.w3.org/2000/svg" xmlns:xlink="http://www.w3.org/1999/xlink" x="0px" y="0px"
	 width="40px" height="40px" viewBox="0 0 50 50" enable-background="new 0 0 50 50" xml:space="preserve">
<circle fill="#36B419" cx="25" cy="25" r="25"/>
<g>
	<g>
		<path fill="#FFFFFF" d="M40.424,24.646c0-6.806-6.919-12.341-15.424-12.341c-8.504,0-15.424,5.536-15.424,12.341
			c0,6.1,5.487,11.208,12.9,12.175c0.502,0.106,1.186,0.328,1.358,0.749c0.157,0.384,0.103,0.986,0.051,1.374
			c0,0-0.18,1.073-0.219,1.304c-0.068,0.386-0.311,1.504,1.336,0.819c1.647-0.682,8.882-5.158,12.118-8.828h-0.001
			C39.353,29.822,40.424,27.368,40.424,24.646z M18.962,28.693h-3.064c-0.447,0-0.809-0.358-0.809-0.8v-6.041
			c0-0.44,0.364-0.797,0.809-0.797c0.447,0,0.808,0.357,0.808,0.797v5.245h2.256c0.447,0,0.809,0.358,0.809,0.798
			S19.409,28.693,18.962,28.693z M22.134,27.896c0,0.439-0.365,0.798-0.81,0.798s-0.809-0.358-0.809-0.798v-6.042
			c0-0.44,0.364-0.798,0.809-0.798s0.81,0.358,0.81,0.798V27.896z M29.51,27.896c0,0.345-0.223,0.646-0.554,0.757
			c-0.084,0.026-0.17,0.041-0.256,0.041c-0.254,0-0.494-0.121-0.646-0.321l-3.141-4.215v3.739c0,0.439-0.363,0.798-0.808,0.798
			c-0.446,0-0.809-0.358-0.809-0.798v-6.042c0-0.344,0.221-0.647,0.554-0.756c0.082-0.028,0.17-0.041,0.255-0.041
			c0.254,0,0.496,0.119,0.646,0.318l3.14,4.217v-3.738c0-0.44,0.363-0.797,0.81-0.797c0.448,0,0.81,0.357,0.81,0.797L29.51,27.896
			L29.51,27.896z M34.467,24.077c0.448,0,0.811,0.359,0.811,0.799c0,0.439-0.363,0.796-0.811,0.796h-2.253v1.427h2.253
			c0.447,0,0.811,0.359,0.811,0.799s-0.363,0.798-0.811,0.798h-3.063c-0.446,0-0.809-0.358-0.809-0.798v-3.02c0,0,0,0,0-0.002
			v-3.021c0-0.44,0.362-0.797,0.809-0.797h3.063c0.448,0,0.811,0.357,0.811,0.797s-0.363,0.797-0.811,0.797h-2.253v1.427h2.253
			V24.077z"/>
	</g>
</g>
</svg>
